<svg width="38" height="38" fill="none" xmlns="http://www.w3.org/2000/svg"><g fill="#535353"><path d="m30.192 33.111-.718-.716a165.461 165.461 0 0 1-1.963-1.975c-.071-.073-.1-.095-.25-.095-3.564.006-7.127.008-10.688.008-2.205 0-4.408 0-6.613-.004-4.847-.004-8.77-3.192-9.763-7.931-.545-2.603.054-5.377 1.642-7.608 1.445-2.03 3.58-3.432 5.936-3.92L4.27 7.354l2.996-2.98L33.65 30.68l-2.946 2.945zM10.817 15.106c-.361 0-.722.004-1.083.012-2.896.063-5.244 2.47-5.238 5.367.008 2.98 2.377 5.323 5.395 5.333 1.913.006 3.827.008 5.74.008 1.544 0 3.087 0 4.628-.002h2.647c-3.51-3.509-7.138-7.134-10.713-10.693a.281.281 0 0 1-.022-.006c-.46-.01-.918-.016-1.356-.016zM30.856 25.874l.672-.52c.054-.044.141-.115.234-.178 1.449-.988 2.064-2.677 1.57-4.305-.497-1.628-1.95-2.692-3.7-2.706-.271-.002-.541-.004-.814-.004h-2.05l-.056-.664c-.02-.244-.036-.486-.05-.724-.03-.484-.059-.94-.134-1.376-.627-3.686-3.779-6.363-7.493-6.363a7.675 7.675 0 0 0-3.19.698 1.514 1.514 0 0 1-.641.155c-.47 0-.78-.268-.97-.472-.416-.438-.842-.86-1.294-1.305-.184-.182-.37-.364-.555-.55l-.648-.645.775-.484c2.004-1.249 4.166-1.885 6.428-1.885.089 0 .18 0 .269.002 5.588.12 10.229 3.828 11.577 9.237 3.557.6 5.93 2.66 6.863 5.962.935 3.307-.006 6.307-2.721 8.676a3.632 3.632 0 0 1-.303.232 1.241 1.241 0 0 0-.069.05l-.504.375-3.196-3.208z"/></g></svg>
