<svg width="24" height="24" fill="none" xmlns="http://www.w3.org/2000/svg"><path d="M0 14.596c.143-.19.238-.19.429-.047 1.38.811 2.857 1.432 4.38 1.957 1.191.382 2.381.668 3.62.86 1.476.238 2.952.334 4.428.286.762 0 1.524-.096 2.238-.191a21.445 21.445 0 0 0 4.524-1.05 23.593 23.593 0 0 0 1.667-.621c.143-.048.285-.096.428 0 .19.095.238.334.096.477l-.143.143c-1.238.908-2.62 1.576-4.096 2.053a18.156 18.156 0 0 1-3.19.717c-.62.095-1.19.143-1.81.143H11.43c0-.048-.048 0-.048 0h-.429a23.397 23.397 0 0 1-1.904-.191c-.905-.143-1.81-.382-2.715-.669a17.221 17.221 0 0 1-5.952-3.39A1.45 1.45 0 0 1 0 14.693v-.096Z" fill="#FE9A01"/><path d="M10.333 10.872c.048-.19.095-.43.143-.62.381-1.528.714-3.056 1.095-4.584.096-.334.19-.43.524-.43h.62c.285 0 .38.096.428.335.095.382.19.716.238 1.098.333 1.385.667 2.817 1 4.201 0 0 0 .048.047.048.048-.239.096-.43.191-.668.381-1.528.81-3.056 1.19-4.631.096-.335.191-.43.524-.43H17c.143 0 .238.048.19.239 0 .143-.047.238-.095.334-.619 2.005-1.238 4.058-1.905 6.063-.142.382-.19.43-.571.43H14c-.238 0-.333-.096-.381-.334-.143-.573-.286-1.098-.38-1.671a89.532 89.532 0 0 1-.81-3.438s0-.047-.048-.095c-.095.382-.19.716-.238 1.05-.334 1.337-.667 2.674-.953 4.058-.095.334-.142.382-.523.382h-.715c-.143 0-.238-.095-.333-.239-.095-.286-.19-.572-.286-.907-.571-1.814-1.095-3.628-1.666-5.442-.048-.096-.048-.191-.048-.287 0-.143.048-.238.19-.238h.858c.142 0 .285.095.333.238.095.287.19.62.238.907.333 1.624.667 3.104 1.095 4.631ZM5.571 11.398c-.238.286-.523.572-.857.716-.762.43-1.571.525-2.428.19-.715-.238-1.095-.811-1.19-1.527-.096-.477-.048-1.003.19-1.432a2.286 2.286 0 0 1 1.476-1.098c.524-.144 1.095-.144 1.619-.096.333.048.667.096 1 .191.048 0 .095 0 .095-.048 0-.382 0-.764-.047-1.146-.143-.62-.477-.907-1.096-1.002-.762-.096-1.476.048-2.19.334-.143.048-.238.096-.381.143-.143.048-.238 0-.238-.143v-.573c0-.143.095-.239.238-.286.286-.144.571-.287.905-.335.81-.238 1.571-.238 2.38-.095.524.096 1 .334 1.334.812.238.382.381.764.429 1.24v2.818c0 .239 0 .477.047.716.048.286.19.525.286.764.095.19.095.334-.095.477l-.429.287c-.19.143-.333.095-.524-.048a3.978 3.978 0 0 1-.38-.573c-.096-.143-.144-.239-.144-.286Zm-1.57-2.34c-.144 0-.382 0-.572.048-.477.095-.81.334-.953.86-.047.143-.047.334-.047.525.047.525.333.859.857.954.524.096 1 0 1.428-.286.381-.239.62-.525.715-1.003.047-.286.047-.525.047-.811 0-.096-.047-.096-.095-.096-.429-.143-.857-.19-1.38-.19ZM20.428 5c.572 0 1.096.095 1.62.286a.36.36 0 0 1 .19.096c.286.095.429.286.381.62v.335c0 .143-.095.19-.238.143-.19-.048-.333-.143-.524-.191a4.311 4.311 0 0 0-1.905-.143c-.095 0-.19.048-.285.095-.286.144-.429.335-.477.621a.865.865 0 0 0 .334.812c.238.143.524.238.81.334.476.143 1 .286 1.476.477.523.239.952.573 1.142 1.098.286.86.048 1.815-.904 2.435-.429.287-.905.43-1.381.478-.858.095-1.62-.048-2.429-.335l-.286-.143c-.143-.095-.238-.239-.238-.382v-.43c0-.19.096-.286.286-.238.238.048.428.19.667.239.666.19 1.333.286 2.047.143.19-.048.381-.143.572-.239.428-.334.476-1.098-.096-1.384-.285-.144-.571-.24-.857-.335-.428-.143-.857-.238-1.285-.43-.62-.286-1.048-.715-1.238-1.336-.191-.764.047-1.432.666-1.958.429-.382 1-.525 1.572-.573.19-.095.285-.095.38-.095Z" fill="#263040"/><path d="M22.333 13.976c.429 0 .81.047 1.239.143.333.095.428.19.428.573 0 .62-.143 1.193-.333 1.766-.238.62-.572 1.242-1.048 1.719-.095.048-.143.143-.238.191-.095.048-.143.096-.238 0-.095-.048-.048-.143 0-.239.19-.525.428-1.002.571-1.575.096-.287.143-.573.19-.907v-.335c-.047-.143-.094-.286-.285-.334-.238-.095-.476-.095-.714-.095-.667 0-1.381.048-2.048.143h-.19c-.143 0-.19-.095-.143-.239.047-.048.095-.143.143-.143.476-.334 1.047-.525 1.619-.62.333-.048.714-.048 1.047-.048Z" fill="#FE9A01"/></svg>