<svg width="24" height="24" fill="none" xmlns="http://www.w3.org/2000/svg"><path d="m3.284 4.358.018 3.468c-.397.18-.83.266-1.267.252C2.023 7.132 2.016 6.185 2 5.24c0-.194.04-.327.235-.408.353-.15.699-.315 1.049-.474Z" fill="#8E4C2C"/><path d="M16.201 14.651c-.006 2.232-.022 4.454-.006 6.68 0 .424-.105.663-.51.85-1.113.517-2.2 1.092-3.303 1.633-.159.078-.3.277-.52.138.163-.184.108-.408.108-.617V.669c0-.21.054-.434-.108-.617.196-.14.326.041.47.11 1.135.557 2.258 1.14 3.405 1.683.353.167.47.368.47.757-.018 2.903-.01 5.806-.007 8.71 0 .234.026.47.04.697-.74.047-1.481.095-2.217-.032-.334-.057-.522.01-.505.408.023.546.014 1.094 0 1.644 0 .27.095.37.37.392.765.056 1.54.15 2.313.23Z" fill="#E77D3C"/><path d="M11.862.051c.162.183.108.407.108.617v22.666c0 .209.055.433-.108.617-1.278-.63-2.552-1.267-3.836-1.88-.243-.117-.276-.28-.276-.51.008-4.228.013-8.452.015-12.671.774-.068 1.58.203 2.322-.215.283-.03.257-.242.257-.437 0-.587-.028-1.175.01-1.762.027-.406-.16-.548-.509-.625-.704-.153-1.402-.327-2.103-.493 0-.956.012-1.91.008-2.867 0-.244.012-.433.285-.563C9.318 1.317 10.584.679 11.862.05Z" fill="#8E4C2C"/><path d="M7.742 5.358c.704.166 1.4.34 2.103.493.352.077.536.219.509.625-.038.587-.01 1.175-.01 1.762 0 .195.026.407-.256.437l-6.786-.846-.018-3.468 4.458.997Z" fill="#E67D3C"/><path d="M16.201 14.651c-.774-.08-1.548-.173-2.323-.235-.276-.022-.376-.117-.371-.392a27.48 27.48 0 0 0 0-1.644c-.016-.398.171-.47.505-.408.736.127 1.477.08 2.217.032l4.67.024c0 .99.002 1.982.008 2.974-.94.067-1.852-.128-2.779-.19-.644-.038-1.286-.107-1.927-.16Z" fill="#8E4C2C"/><path d="M2.035 8.078c.436.014.87-.072 1.267-.252l6.786.845c-.743.418-1.549.147-2.323.215-1.174-.282-2.387-.277-3.574-.47-.718-.112-1.468-.036-2.156-.338Z" fill="#623E2A"/><path d="M20.905 15.006c0-.991-.003-1.983-.009-2.975a.713.713 0 0 1 .164-.052c.9-.06.902-.06.902.823 0 .427-.04.86.01 1.282.066.573-.128.875-.719.89-.116.004-.232.021-.348.032Z" fill="#E58C55"/></svg>