<svg width="24" height="24" fill="none" xmlns="http://www.w3.org/2000/svg"><g clip-path="url(#a)"><path d="M8.253 1.06c.079-.098.188-.049.282-.049h7.299c.7 0 1.05.253 1.276.921a8200.479 8200.479 0 0 1 4.5 13.35c.018.057.032.115.043.173-.537-.224-1.098-.072-1.648-.092-.264 0-.53.014-.8 0a12.006 12.006 0 0 0-1.361.011 3.315 3.315 0 0 1-.716 0 8.39 8.39 0 0 0-1.364 0c-.197.025-.396.031-.594.018-.505-.096-1.013.027-1.514-.044-.15-.426-.297-.854-.447-1.28-.406-1.176-.766-2.368-1.211-3.531-.031-.115-.054-.224-.092-.345-.492-1.455-.988-2.913-1.478-4.36-.447-1.323-.88-2.645-1.325-3.967a1.05 1.05 0 0 0-.85-.804Z" fill="#34B6EB"/><path d="M9.163 18.895c-.447 1.3-.889 2.6-1.325 3.903-.224.65-.604.932-1.286.932H1.245c-.932 0-1.46-.726-1.162-1.607.91-2.706 1.822-5.412 2.736-8.118.47-1.39.941-2.78 1.415-4.17.235.052.475.072.715.06h4.098c.127 0 .264-.026.362.097.494.639.932 1.318 1.397 1.976.143.204.168.51.47.585-.03.106-.054.21-.088.314-.32.977-.641 1.952-.963 2.926-.48 0-.961.018-1.444.02H7.124a.475.475 0 0 0-.465.274.373.373 0 0 0 .06.448c.428.408.826.847 1.27 1.24.426.334.82.71 1.174 1.12Z" fill="#0A5CA7"/><path d="M13.656 15.338c.501.072 1.009-.051 1.514.045.198.013.397.007.595-.018a8.39 8.39 0 0 1 1.363 0c.238.026.478.026.715 0 .454-.03.908-.033 1.362-.01.27.015.536 0 .8 0 .55.02 1.118-.129 1.648.091.46 1.345.922 2.689 1.384 4.033.298.874.592 1.75.883 2.627.29.885-.224 1.608-1.158 1.608H15.199l.244-.165a.788.788 0 0 0 .156-.081 1.194 1.194 0 0 0 .333-1.36 920.592 920.592 0 0 0-1.5-4.446 19.084 19.084 0 0 0-.682-1.918c.018-.146-.071-.269-.094-.405Z" fill="#2998E1"/><path d="M11.276 12.553c-.302-.076-.327-.38-.47-.585-.465-.658-.894-1.344-1.397-1.976-.098-.123-.223-.096-.362-.096H4.949c-.24.011-.48-.01-.715-.06.583-1.744 1.167-3.487 1.753-5.23.31-.928.621-1.858.94-2.784a1.138 1.138 0 0 1 1.1-.82.47.47 0 0 1 .224.058 1.045 1.045 0 0 1 .854.791c.447 1.323.88 2.645 1.326 3.967.49 1.454.986 2.913 1.477 4.36.038.112.06.224.092.345l-.724 2.03Z" fill="#0E4E90"/><path d="m15.443 23.553-.244.166a1.577 1.577 0 0 1-1.386-.493c-1.487-1.414-2.987-2.81-4.484-4.21a1.493 1.493 0 0 0-.166-.121 8.525 8.525 0 0 0-1.173-1.12c-.448-.393-.843-.832-1.27-1.24a.372.372 0 0 1-.06-.448.476.476 0 0 1 .464-.273h1.657c.483 0 .963-.014 1.444-.02l2.622-.03a.726.726 0 0 0 .058.323l1.429 4.282c.357 1.064.706 2.133 1.109 3.184Z" fill="#0177D2"/><path d="m12.856 15.764.894-.018c.264.628.494 1.269.689 1.92.504 1.481 1.004 2.963 1.5 4.446a1.196 1.196 0 0 1-.333 1.36.79.79 0 0 1-.157.081c-.402-1.05-.75-2.12-1.117-3.184l-1.429-4.282a.725.725 0 0 1-.047-.323Z" fill="#0A5CA7"/></g><defs><clipPath id="a"><path fill="#fff" transform="translate(0 1)" d="M0 0h24v22.737H0z"/></clipPath></defs></svg>