<svg width="24" height="24" fill="none" xmlns="http://www.w3.org/2000/svg"><path d="m12.303 7.186.012-7.133C8.466.042 4.617.053.77.007c-.666 0-.765.28-.757.847.026 1.748.059 3.496 0 5.244-.032.873.23 1.092 1.082 1.092 3.163-.035 6.33.01 9.493.026l1.73-.015-.015-.015Zm-7.026-2.97c0 .329-.13.644-.36.876-.23.232-.541.363-.866.363H2.706c-.325 0-.637-.131-.867-.363a1.247 1.247 0 0 1-.36-.875V2.856c.001-.329.13-.644.36-.876.23-.232.542-.363.867-.363H4.05c.325 0 .636.131.866.363.23.232.36.547.36.876v1.36Z" fill="#218BE4"/><path d="M12.313 16.805V9.814l-1.758-.022c-3.23 0-6.461.017-9.69-.011-.648 0-.865.181-.847.856.043 1.774.036 3.553 0 5.329 0 .63.123.904.821.896 3.225-.024 6.453-.024 9.682-.024l1.792-.033Zm-7.036-2.939c0 .329-.13.643-.36.876-.23.232-.541.362-.866.363H2.706c-.325 0-.637-.131-.867-.363a1.248 1.248 0 0 1-.36-.876v-1.358c.001-.329.13-.644.36-.876.23-.232.542-.363.867-.363H4.05c.325 0 .636.131.866.363.23.232.36.547.36.876v1.358Z" fill="#1E89E3"/><path d="m12.303 7.186.9.021c2.945 0 5.892-.032 8.84 0 .648 0 .88-.15.864-.843-.047-1.85-.023-3.703-.01-5.556 0-.487-.018-.814-.664-.808-3.305.044-6.611.046-9.915.061l-.013 7.133-.002-.008Z" fill="#1A76D3"/><path d="M12.313 16.805a.515.515 0 0 0 .41.218h.228c.077-.005.153-.005.23 0 2.938-.022 5.875-.065 8.814-.054.687 0 .934-.177.912-.914a94.823 94.823 0 0 1 0-5.433c.02-.684-.203-.852-.852-.843-2.939.033-5.877.017-8.818.02l-.928.028.004 6.978Z" fill="#1C77D3"/><path d="M.005 22.063c-.05.914.294 1.064 1.096 1.056 2.87-.029 5.74.015 8.609.03-.009-.909-.017-1.818-.024-2.729-2.692 0-5.382 0-8.075.033-1.833.018-1.505-.273-1.606 1.61ZM21.93 20.431c-2.617.035-5.235 0-7.852-.02l-.026 2.745c.391-.018.785-.05 1.178-.053 2.01 0 4.018.018 6.027 0 1.853-.024 1.553.352 1.627-1.682.028-.762-.19-.998-.954-.99Z" fill="#1A76D3"/><path d="M13.263 19.6h-2.755c-.742-.206-.865.217-.822.818.009.91.017 1.819.024 2.729-.054.516-.02.891.685.85a25.36 25.36 0 0 1 2.967 0c.694.04.76-.313.69-.843l.026-2.744c.052-.599-.08-1.012-.815-.81Z" fill="#218BE4"/><path d="M13.18 17.019a1.594 1.594 0 0 0-.229 0h-.229a.51.51 0 0 1-.409-.218l-1.792.037c.095.921.09 1.851-.015 2.772h2.755c-.025-.865-.052-1.729-.08-2.591ZM13.235 9.794l-.033-2.587-.9-.021-1.73.015c-.008.874-.017 1.74-.027 2.6l1.758.021.932-.028Z" fill="#1665C1"/><path d="M4.05 1.619H2.707c-.678 0-1.227.555-1.227 1.239v1.359c0 .684.55 1.238 1.227 1.238H4.05c.677 0 1.226-.554 1.226-1.238v-1.36c0-.683-.55-1.238-1.226-1.238ZM4.05 11.269H2.707c-.678 0-1.227.554-1.227 1.239v1.358c0 .684.55 1.24 1.227 1.24H4.05c.677 0 1.226-.556 1.226-1.24v-1.358c0-.685-.55-1.24-1.226-1.24Z" fill="#FCFDFE"/></svg>