<svg width="24" height="24" fill="none" xmlns="http://www.w3.org/2000/svg"><g fill="#4A5053"><path d="M7 17V7h10v10H7Zm6.634-3.366v-3.268h-3.268v3.268h3.268Z"/><path d="M13.485 24v-2.396h-2.98V24h-3.07v-2.396H5.948a3.552 3.552 0 0 1-3.552-3.555v-2.5H0v-3.07h2.395v-1.974H0V7.434h2.395V5.94a3.558 3.558 0 0 1 3.552-3.552h1.489V0h3.069v2.399h2.98V0h3.07v2.399h1.49a3.553 3.553 0 0 1 3.55 3.542v1.493H24v3.07h-2.397v1.974H24v3.071h-2.397v2.5a3.558 3.558 0 0 1-3.55 3.555h-1.499V24h-3.069ZM5.94 5.46a.483.483 0 0 0-.483.48v12.11a.483.483 0 0 0 .483.482h12.1a.483.483 0 0 0 .48-.483V5.941a.484.484 0 0 0-.48-.481h-12.1Z"/></g></svg>