<svg fill="none" height="24" width="24" xmlns="http://www.w3.org/2000/svg"><path d="M12.003 24c-2.961 0-5.76-.354-7.879-1C.714 21.965 0 20.463 0 19.386V4.618C0 2.32 3.712 0 12 0s12 2.32 12 4.618v14.767c0 1.077-.715 2.579-4.124 3.616-2.116.645-4.912.999-7.873.999zm-8.82-4.687c.388.552 3.344 1.785 8.82 1.785 5.475 0 8.428-1.233 8.817-1.785v-4.01a13.79 13.79 0 0 1-.942.323c-2.118.644-4.915.999-7.875.999-2.961 0-5.76-.355-7.879-1a14.29 14.29 0 0 1-.941-.323zm0-7.375c.388.55 3.344 1.782 8.82 1.782 5.475 0 8.428-1.232 8.817-1.782V7.91c-2.131.86-5.184 1.323-8.817 1.323s-6.686-.476-8.82-1.323zm.088-7.304c.663.58 3.676 1.704 8.732 1.704 2.608 0 5.05-.302 6.858-.854 1.171-.355 1.672-.695 1.87-.869-.66-.58-3.675-1.705-8.728-1.705-2.61 0-5.05.304-6.859.854-1.171.357-1.674.687-1.873.863z" fill="#4a5053"/></svg>