<svg fill="none" height="24" width="24" xmlns="http://www.w3.org/2000/svg"><clipPath id="a"><path d="M0 0h24v24H0z"/></clipPath><g clip-path="url(#a)"><path d="M7.385 19.36c-.003-.04-.008-.08-.008-.12 0-1.445 0-2.89-.003-4.335 0-.137.031-.18.175-.179 1.424.006 2.848.006 4.271 0 .173 0 .19.065.189.207a701.25 701.25 0 0 0 0 4.153c0 .276-.054.263.253.254 3.412-.104 6.388-2.669 6.956-6.037.393-2.331-.143-4.438-1.698-6.241-1.08-1.252-2.477-1.966-4.088-2.275-2.98-.572-5.947.681-7.6 3.21a7.074 7.074 0 0 0-1.18 3.794c-.003.163-.042.212-.21.211-1.41-.007-2.821-.007-4.232 0-.165 0-.213-.036-.208-.206.076-2.88 1.032-5.426 2.909-7.611C4.66 2.148 6.858.828 9.487.27c5.415-1.152 11.384 1.428 13.644 7.168.732 1.856 1.034 3.795.784 5.782-.59 4.684-3.086 7.971-7.389 9.88-1.37.607-2.83.86-4.326.9-.173.005-.207-.045-.206-.208.006-1.404 0-2.81.008-4.214 0-.168-.04-.209-.21-.208-1.39.007-2.78.004-4.17.003-.081 0-.161-.01-.238-.016z" fill="#0180fe"/></g></svg>