<svg width="24" height="24" fill="none" xmlns="http://www.w3.org/2000/svg"><path d="M11.583 24A11.998 11.998 0 0 1 .002 11.795 12.005 12.005 0 0 1 12 0a11.998 11.998 0 0 1 11.998 11.795A12.006 12.006 0 0 1 12.418 24h-.835Zm5.868-10.54a16.948 16.948 0 0 1-2.355 7.107 9.07 9.07 0 0 0 5.884-7.107h-3.53Zm-14.429 0a9.067 9.067 0 0 0 5.885 7.104 16.93 16.93 0 0 1-2.358-7.104H3.022Zm6.446 0a14.292 14.292 0 0 0 2.533 6.538 14.317 14.317 0 0 0 2.531-6.538H9.468Zm11.51-2.903a9.197 9.197 0 0 0-6.001-7.138 16.934 16.934 0 0 1 2.46 7.138h3.541Zm-6.463 0c-.3-2.3-1.163-4.491-2.514-6.377a14.04 14.04 0 0 0-2.514 6.377h5.028Zm-7.949 0a16.896 16.896 0 0 1 2.46-7.138 9.193 9.193 0 0 0-6.002 7.138h3.542Z" fill="#4A5053"/></svg>