<svg width="24" height="24" fill="none" xmlns="http://www.w3.org/2000/svg"><g fill="#EF861D"><path d="M14.438 19.801h-.151a.764.764 0 0 1-.573-.24.703.703 0 0 1-.1-.532v-.08a.755.755 0 0 1 0-.15v-.401c0-.03-.06-.06-.291-.06h-.07c-.322 0-.412.06-.433.09-.02.03-.06.1 0 .35.02.164.02.329 0 .492v.451h-.673a.864.864 0 0 1-.683-.21c-.19-.201-.18-.492-.14-.943v-.25h-.653a.804.804 0 0 0-.201 0 1.636 1.636 0 0 0 0 .2c.014.096.014.194 0 .29a.709.709 0 0 0 0 .131.662.662 0 0 1-.11.572.772.772 0 0 1-.613.21.855.855 0 0 1-.663-.22.62.62 0 0 1-.15-.452c0-.721-.162-.721-.383-.721a2.256 2.256 0 0 0-.441.06v.561a.8.8 0 0 1-.151.672.764.764 0 0 1-.593.21.846.846 0 0 1-.623-.21.841.841 0 0 1-.16-.652 1 1 0 0 0-.362-.922 1.826 1.826 0 0 0-1.306-.642h-.24a.453.453 0 0 1-.342-.14.621.621 0 0 1-.1-.531v-.16a.62.62 0 0 1 .09-.492.554.554 0 0 1 .391-.17h.201c.23.007.459-.013.683-.06a3.003 3.003 0 0 0 0-.652.46.46 0 0 1 0-.1h-.683c-.452 0-.683-.261-.683-.782a.811.811 0 0 1 .191-.592.673.673 0 0 1 .492-.16h.743a2.06 2.06 0 0 0 0-.662c.006-.06.006-.12 0-.18h-.25c-1.005 0-1.146-.13-1.196-1.093v-.15l.12-.09c.172-.12.375-.183.583-.181H5.608a.28.28 0 0 0 0-.08v-.1a3.661 3.661 0 0 0 0-.552 2.405 2.405 0 0 0-.532 0 .906.906 0 0 1-.753-.27 1.001 1.001 0 0 1-.1-.823.511.511 0 0 1 .522-.441h.22c.22.008.44-.012.653-.06.02-.2.02-.402 0-.602v-.09c.003-.04.003-.08 0-.12h-.502l-.2.03a.634.634 0 0 1-.493-.19 1.001 1.001 0 0 1-.18-.772.55.55 0 0 1 .582-.592h.844a1.072 1.072 0 0 1 .602-.702c.292-.18.362-.24.332-.42a2.095 2.095 0 0 1 0-.241.24.24 0 0 0 0-.12.82.82 0 0 1 .14-.652.794.794 0 0 1 .633-.22c.203-.006.4.066.553.2a.821.821 0 0 1 .18.621c0 .361 0 .572.08.632.07.018.143.018.212 0 .178.007.356 0 .532-.02v-.562a.75.75 0 0 1 .13-.641.834.834 0 0 1 .644-.22.794.794 0 0 1 .572.18.861.861 0 0 1 .18.631c-.026.215.005.433.091.632.07.019.142.019.211 0 .172-.007.344-.027.513-.06a1.51 1.51 0 0 1 0-.21v-.352a.802.802 0 0 1 .14-.641.824.824 0 0 1 .643-.221.815.815 0 0 1 .573.18.79.79 0 0 1 .17.632c-.025.215.006.432.09.632a.463.463 0 0 0 .222 0c.172-.007.343-.027.512-.06v-.13c.01-.118.01-.235 0-.352a.811.811 0 0 1 .14-.641.854.854 0 0 1 .654-.22.774.774 0 0 1 .562.18.832.832 0 0 1 .18.641c-.025.208.006.42.091.612.072.023.15.023.221 0 .169-.006.337-.026.502-.06v-.16c.01-.135.006-.269-.01-.402a.77.77 0 0 1 .13-.621.825.825 0 0 1 .654-.231.735.735 0 0 1 .562.19.85.85 0 0 1 .151.652v.06c0 .502 0 .642.311.712a.513.513 0 0 1 .342.32c.1.332.261.442.673.442h.482a.544.544 0 0 1 .422.16.63.63 0 0 1 .12.512v.17a.62.62 0 0 1-.13.521.492.492 0 0 1-.402.16H18.617c-.142 0-.212 0-.242.492a.531.531 0 0 0 0 .33h.603a.886.886 0 0 1 .723.231 1 1 0 0 1 .1.823.491.491 0 0 1-.522.46h-.18a3.023 3.023 0 0 0-.704.06 2.928 2.928 0 0 0 0 .642c.004.03.004.06 0 .09H19.168c.453 0 .674.271.684.783a.83.83 0 0 1-.181.591.665.665 0 0 1-.502.17h-.754a.86.86 0 0 0 0 .13v.101c-.013.19-.013.381 0 .572.19.02.382.02.573 0h.14a.705.705 0 0 1 .523.17.743.743 0 0 1 .17.561c0 .22 0 .812-.663.812H18.386a.86.86 0 0 0 0 .13v.161a3.33 3.33 0 0 0 0 .511c.17.015.342.015.512 0h.252a.635.635 0 0 1 .472.17.712.712 0 0 1 .17.572c0 .22 0 .802-.683.802h-.13c-.11-.01-.222-.01-.332 0-.291 0-.412.09-.472.361a.46.46 0 0 1-.331.341c-.392.09-.412.27-.382.792v.19a.621.621 0 0 1-.16.512.643.643 0 0 1-.493.17h-.23a.675.675 0 0 1-.533-.18.632.632 0 0 1-.08-.562.407.407 0 0 0 0-.11.998.998 0 0 1 0-.24v-.311s-.081-.07-.392-.07c-.322 0-.402.06-.432.08a.63.63 0 0 0 0 .36.94.94 0 0 1-.12.793.693.693 0 0 1-.583.25Zm-7.273-2.947H16.878a.35.35 0 0 0 0-.16V7.27a.762.762 0 0 0 0-.1H7.156v9.584c0 .04.01.08.01.1Z"/><path d="M20.796 13.706c-.613 0-.613-.491-.623-.672v-.11a.72.72 0 0 1 .14-.571.632.632 0 0 1 .503-.19h1.687V1.615a.22.22 0 0 0 0-.1H12.027a.322.322 0 0 0-.15 0 .278.278 0 0 0 0 .15V3.18a.62.62 0 0 1-.151.49.553.553 0 0 1-.422.161h-.362a.574.574 0 0 1-.422-.16.582.582 0 0 1-.15-.471V1.114A1.161 1.161 0 0 1 11.595.002h11.049c.954 0 1.356.44 1.356 1.403v10.887c0 1.003-.422 1.394-1.426 1.404h-1.035a6.543 6.543 0 0 0-.663 0l-.08.01ZM7.085 23.992H1.34a1.197 1.197 0 0 1-1.326-1.334V11.631a1.201 1.201 0 0 1 .796-1.317c.176-.061.365-.08.55-.057h1.787a.715.715 0 0 1 .583.23.862.862 0 0 1 .17.683.66.66 0 0 1-.15.47.633.633 0 0 1-.472.171H1.55v10.637h10.638v-1.484a.83.83 0 0 1 .16-.662.693.693 0 0 1 .523-.2h.21a.635.635 0 0 1 .523.21.711.711 0 0 1 .15.592V22.648a1.182 1.182 0 0 1-1.305 1.344H7.085Z"/></g></svg>