<svg width="16" height="16" viewBox="0 0 16 16" fill="none" xmlns="http://www.w3.org/2000/svg"><path fill-rule="evenodd" clip-rule="evenodd" d="M16 8C16 12.4183 12.4183 16 8 16C3.58172 16 0 12.4183 0 8C0 3.58172 3.58172 0 8 0C12.4183 0 16 3.58172 16 8ZM6.66667 4C6.66667 3.26362 7.26362 2.66667 8 2.66667C8.73638 2.66667 9.33333 3.26362 9.33333 4V8C9.33333 8.73638 8.73638 9.33333 8 9.33333C7.26362 9.33333 6.66667 8.73638 6.66667 8V4ZM8 10.6667C7.26362 10.6667 6.66667 11.2636 6.66667 12C6.66667 12.7364 7.26362 13.3333 8 13.3333C8.73638 13.3333 9.33333 12.7364 9.33333 12C9.33333 11.2636 8.73638 10.6667 8 10.6667Z" fill="#EB4235"/></svg>
