<svg width="30" height="30" fill="none" xmlns="http://www.w3.org/2000/svg"><g transform="translate(0 .5)" clip-path="url(#a)" fill="#1f75cb"><path d="M22.77 2.097A15.405 15.405 0 0 0 14.318.015a15.33 15.33 0 0 0-8.221 2.816A14.552 14.552 0 0 0 .886 9.592a14.042 14.042 0 0 0-.439 8.42 14.417 14.417 0 0 0 4.482 7.234 15.227 15.227 0 0 0 7.887 3.6c2.94.418 5.942-.018 8.626-1.251.935-.43 1.333-1.511.888-2.415s-1.563-1.289-2.498-.859c-2.013.925-4.265 1.252-6.47.938s-4.263-1.253-5.915-2.7a10.814 10.814 0 0 1-3.361-5.425c-.54-2.09-.426-4.288.329-6.315a10.914 10.914 0 0 1 3.908-5.071 11.497 11.497 0 0 1 6.166-2.112 11.553 11.553 0 0 1 6.339 1.562 11.011 11.011 0 0 1 4.368 4.706c.438.907 1.554 1.3 2.492.877.939-.423 1.345-1.502.907-2.409a14.68 14.68 0 0 0-5.825-6.275z"/><path d="M13.125 9.063c0-1.002.84-1.813 1.875-1.813s1.875.811 1.875 1.813v7.25c0 .686-.401 1.314-1.036 1.62l-3.75 1.813c-.927.448-2.053.085-2.516-.81-.463-.896-.088-1.985.838-2.432l2.714-1.312zM30 27.188c0 1.001-.84 1.813-1.875 1.813s-1.875-.812-1.875-1.813.84-1.813 1.875-1.813S30 26.188 30 27.188zM28.125 14.5c-1.036 0-1.875.811-1.875 1.813v5.437c0 1.001.84 1.813 1.875 1.813S30 22.75 30 21.75v-5.438c0-1-.84-1.812-1.875-1.812z"/></g><defs><clipPath id="a"><path transform="matrix(-1 0 0 1 30 0)" fill="#1f75cb" d="M0 0h30v29H0z"/></clipPath></defs></svg>