<svg width="24" height="24" fill="none" xmlns="http://www.w3.org/2000/svg"><path d="M17.728 21.347H11.89v-4.196h5.115c1.55 0 2.635-1.19 2.687-2.486.051-1.398-1.034-2.642-2.429-2.693-.103 0-.155-.052-.155-.156 0-.518 0-1.036-.103-1.554-.258-1.191-.827-2.176-1.757-2.9-.051-.104.052-.104.104-.156l.981-.984 1.809-1.813c.051-.052.103.051.155.051 1.291 1.192 2.17 2.642 2.686 4.3.052.103.052.155.155.207.517.363.982.829 1.395 1.347.878 1.088 1.343 2.383 1.447 3.781.051.57 0 1.14-.104 1.658-.465 2.694-2.635 4.87-5.321 5.387a6.41 6.41 0 0 1-.827.207Z" fill="#3E82F1"/><path d="M6.671 21.347c1.757-.051 3.513-.051 5.218-.051v.051H6.671Z" fill="#FEFEFE"/><path d="M15.248 7.361c-.051 0-.103-.052-.155-.103a5.196 5.196 0 0 0-6.871.518c-.052.051-.052.103-.155.103-.465-.052-.93-.103-1.395-.103-1.24 0-2.429.362-3.514 1.036a.391.391 0 0 1-.206.103c-.104 0-.052-.052-.052-.103l.31-.933c1.24-2.9 3.41-4.817 6.458-5.594 2.997-.725 5.735-.052 8.164 1.865a.404.404 0 0 1 .206.207L16.23 6.17l-.982.984c.052.104-.051.104 0 .207Z" fill="#EB4235"/><path d="M5.638 16.892c.414.156.879.26 1.292.26h4.753c.052 0 .155 0 .207.051v4.144H6.672c-.93 0-1.809-.207-2.687-.57-.413-.207-.827-.414-1.24-.725-.052-.052-.103-.052-.103-.103l2.015-2.02c.31-.363.62-.674.981-1.037Z" fill="#30A857"/><path d="m5.638 16.893-.981.984-2.015 2.02C1.195 18.757.265 17.255.058 15.442c-.31-2.642.62-4.765 2.739-6.371l.155-.156c.051-.051.155-.051.206-.103 1.085-.674 2.222-.984 3.514-1.036.465 0 .93.051 1.395.103.62.156 1.24.363 1.808.622a7.92 7.92 0 0 1 2.17 1.761c.052.104.103.155 0 .207-.93.933-1.86 1.865-2.842 2.798l-.103.103c-.31-.57-.723-1.036-1.292-1.295a2.575 2.575 0 0 0-3.616 2.694c.103.829.516 1.502 1.24 1.916.051.156.103.208.206.208Z" fill="#FCBC21"/></svg>