<svg width="24" height="22" fill="none" xmlns="http://www.w3.org/2000/svg"><g clip-path="url(#a)"><path d="M15.767 21.277c0-.2-.2-.309-.327-.445l-5.038-5.038c-.136-.136-.308-.254-.317-.49.354 0 .526-.127.48-.49a4.29 4.29 0 0 1 0-.481c0-.209.073-.273.273-.282.799-.045.799-.054.808.754v.082c0 .354.163.444.463.399.481-.064.272-.445.29-.69 0-.545 0-.545.536-.545.535 0 .545 0 .545.527v.209c0 .254 0 .472.363.472s.4-.2.4-.481c0-.745-.001-.763.743-.754.327 0 .454-.118.454-.445 0-.753 0-.753.754-.762h.072c.282 0 .409-.082.409-.39 0-.309-.164-.382-.427-.364-.263.019-.29 0-.436 0-.3.046-.39-.081-.38-.372 0-.835-.1-.68.698-.699h.154c.264 0 .39-.081.39-.372 0-.29-.126-.372-.408-.372h-.626c-.136 0-.218 0-.245-.19-.127-.754 0-.908.708-.908.436 0 .58-.155.544-.554.15.06.28.16.373.29l4.647 4.639c.19.19.372.408.563.608-1.126 1.97-2.26 3.93-3.377 5.9a2.197 2.197 0 0 1-2.115 1.217l-.971.027Z" fill="#407BDC"/><path d="M24 10.856a2.78 2.78 0 0 0-.082-.671c-.343-.97-.82-1.886-1.416-2.724-.662-1.143-1.334-2.269-1.979-3.422a.628.628 0 0 0-.1-.118c-.499-.907-1.007-1.742-1.479-2.632A2.387 2.387 0 0 0 17.283 0H6.726a2.07 2.07 0 0 0-1.389.908C4.72 1.933 4.14 2.978 3.522 4.012 2.414 5.918 1.298 7.815.218 9.731a1.86 1.86 0 0 0 .118 2.033c.015.05.037.1.063.145l4.775 8.27a2.143 2.143 0 0 0 1.979 1.125h8.587c0-.2-.19-.308-.327-.445l-5.038-5.038c-.136-.136-.309-.254-.318-.49a.353.353 0 0 1-.308-.263 2.279 2.279 0 0 1-.971-.971l-.218-.218a2.297 2.297 0 0 1-.98-.971c-.3-.091-.255-.345-.228-.563.028-.218.255-.209.436-.218h.681c-.263-.109-.336-.418-.563-.554l-.4-.49a.5.5 0 0 1-.135-.608c.063-.236.29-.154.472-.163h.626l-.962-1.044a.5.5 0 0 1-.136-.617c.063-.21.281-.146.453-.155.727 0 .745 0 .745-.762 0-.327.136-.436.454-.436.735 0 .735 0 .753-.762 0-.164-.054-.382.163-.445.218-.064.454-.1.609.154l1.034.953v-.626c0-.209-.072-.418.164-.481.236-.064.454-.1.608.145l1.044.962v-.672c0-.226-.055-.38.163-.435.218-.055.454-.091.608.145.392.309.74.669 1.035 1.071l.145.136c.42.279.802.611 1.135.99.085.058.151.14.19.236.15.059.28.16.373.29l4.647 4.639c.191.19.373.408.563.608 0 0 .817-1.353.908-1.489.295-.45.565-.917.808-1.398.039-.15.048-.308.027-.463Z" fill="#4386FA"/><path d="M16.675 8.65c0 .4-.11.572-.545.554-.735 0-.835.118-.708.908 0 .163.109.19.245.19h.6c.29 0 .408.1.399.39-.01.291-.127.391-.39.373h-.155c-.799 0-.672-.136-.699.699 0 .29.082.418.381.372h.436c.145 0 .427.046.427.363 0 .318-.127.418-.409.39h-.072c-.736 0-.754 0-.754.763 0 .327-.127.445-.454.445-.744 0-.753 0-.744.753 0 .282 0 .49-.4.481-.399-.009-.372-.217-.363-.472v-.245c0-.526 0-.526-.544-.526-.545 0-.508 0-.536.544 0 .245.191.627-.29.69-.3.046-.5-.045-.463-.4v-.135c0-.808 0-.8-.808-.754-.2 0-.29.073-.272.282-.01.16-.01.32 0 .48.045.364-.127.51-.481.49a.353.353 0 0 1-.309-.262c0-1.208.182-.971-.908-.98h-.045l-.218-.218c0-1.171.218-.999-.98-.972-.3-.09-.254-.345-.227-.563.027-.217.254-.208.436-.217h.68a1.08 1.08 0 0 0 .055-.972c-.055-.181-.381-.063-.581-.081-.2-.018-.29 0-.436 0a.5.5 0 0 1-.136-.608c.064-.237.29-.155.472-.164h.626a1.08 1.08 0 0 0 .055-.971c-.055-.19-.381-.064-.581-.082-.145-.009-.29-.009-.436 0a.5.5 0 0 1-.136-.617c.064-.209.281-.145.454-.154.726 0 .744 0 .744-.763 0-.327.136-.436.454-.436.735 0 .735 0 .753-.762 0-.163-.054-.381.164-.445.218-.063.454-.1.608.154V7c0 .081 0 .208.109.208.309 0 .644.127.908-.081v-.627c0-.209-.073-.417.163-.48.236-.064.454-.1.608.144v.835c0 .082 0 .21.11.21.317 0 .644.126.907-.082v-.672c0-.227-.055-.381.163-.436.218-.054.454-.09.608.145v.745c0 .245.064.336.309.327.245-.01.5 0 .744 0l.146.136c0 1.098 0 1.098 1.062 1.034.11.051.2.137.254.246Zm-4.666 4.63h2.27c.272 0 .38-.055.372-.345V8.351c0-.272-.082-.345-.345-.345H9.722c-.245 0-.354.064-.354.336v4.62c0 .245.081.327.317.318h2.324Z" fill="#F4F7FD"/><path d="M7.534 11.038h.436c.145 0 .526-.1.58.082a1.08 1.08 0 0 1-.054.97c-.263-.108-.336-.417-.563-.553l-.399-.5ZM11.61 7.135c-.29.208-.627.072-.908.081-.127 0-.109-.127-.109-.208v-.826l1.017.953ZM13.452 7.135c-.3.208-.626.072-.907.081-.127 0-.11-.127-.11-.208v-.836l1.017.963ZM15.277 7.244h-.744c-.245 0-.327-.091-.31-.327.02-.236 0-.49 0-.745a5.51 5.51 0 0 1 1.054 1.072ZM16.484 8.433c-1.035.063-1.035.063-1.062-1.035a5.74 5.74 0 0 1 1.062 1.035ZM7.534 9.204c.145-.009.29-.009.436 0 .2 0 .526-.109.58.082a1.08 1.08 0 0 1-.054.971l-.962-1.053ZM7.607 12.88c1.198 0 .989-.2.98.972a2.296 2.296 0 0 1-.98-.972ZM8.805 14.07h.045c1.108 0 .962-.227.908.98a2.277 2.277 0 0 1-.953-.98ZM12.01 13.28H9.693c-.236 0-.326-.073-.317-.318v-4.62c0-.272.109-.336.354-.336h4.584c.263 0 .345.073.345.345v4.584c0 .29-.1.354-.373.345H12.01Zm1.288-2.632V9.74c0-.245-.1-.336-.336-.336h-1.86c-.246 0-.364.082-.364.345v1.879c0 .263.11.354.363.354h1.816c.272 0 .4-.09.39-.372-.009-.282-.009-.654-.009-.962Z" fill="#407BDC"/><path d="M13.298 10.648v.907c0 .29-.118.382-.39.372h-1.816c-.254 0-.363-.09-.363-.354V9.694c0-.263.118-.345.363-.345h1.88c.235 0 .344.091.335.336l-.009.963Z" fill="#FCFDFE"/></g><defs><clipPath id="a"><path fill="#fff" d="M0 0h24v21.304H0z"/></clipPath></defs></svg>