<svg width="24" height="24" fill="none" xmlns="http://www.w3.org/2000/svg"><path d="M16.75 24H7.23c-.064-.031-.134-.027-.201-.043-.403-.094-.715-.324-.972-.655-1.197-1.54-2.396-3.077-3.598-4.612-.701-.897-1.401-1.794-2.1-2.692a1.652 1.652 0 0 1-.358-1.127c.01-.202.066-.395.11-.59l1.95-8.762c.129-.58.416-1.01.942-1.27C5.763 2.894 8.52 1.537 11.28.178c.472-.232.949-.238 1.422-.006a13424.813 13424.813 0 0 1 8.324 4.094c.463.23.756.608.875 1.123.114.492.222.986.332 1.479.54 2.413 1.078 4.826 1.616 7.238.055.245.13.486.147.738.03.439-.1.826-.367 1.168a154987.285 154987.285 0 0 1-5.743 7.359c-.241.308-.551.502-.926.587-.07.016-.144.012-.21.043ZM11.62 5.057c-.002.13.025.282-.087.396a.314.314 0 0 0-.087.242c.001.062-.027.075-.078.08a6.354 6.354 0 0 0-4.03 1.995c-.045.046-.073.049-.123.01-.049-.04-.092-.097-.167-.078-.125.031-.227-.018-.322-.095a5.669 5.669 0 0 1-.733-.731 1.939 1.939 0 0 0-.328-.309c-.255-.187-.594-.137-.75.108-.13.21-.087.494.11.686.124.123.27.215.422.3.288.163.566.343.821.559.08.068.134.149.145.256a.22.22 0 0 0 .103.176c.071.044.065.086.022.157-.843 1.376-1.174 2.871-.972 4.488.006.05-.006.072-.053.079a.326.326 0 0 0-.238.16c-.053.081-.136.117-.227.138-.312.07-.63.113-.949.128-.206.01-.413.026-.603.122-.22.11-.34.352-.292.568a.51.51 0 0 0 .514.401c.201 0 .386-.074.57-.153.288-.126.586-.228.89-.306.113-.028.226-.047.33.024a.254.254 0 0 0 .238.029c.055-.018.082-.002.102.057.511 1.54 1.445 2.732 2.786 3.587.052.034.072.06.037.118a.293.293 0 0 0-.023.28c.03.072.015.144-.016.216a5.557 5.557 0 0 1-.542.941c-.093.13-.171.272-.232.421-.107.277-.011.58.221.7.237.121.532.016.68-.247.062-.108.111-.224.145-.345.081-.306.188-.604.296-.9a1.19 1.19 0 0 1 .15-.293c.032-.045.069-.086.122-.098.098-.02.155-.083.189-.175.022-.063.056-.07.118-.047a6.222 6.222 0 0 0 4.446.012c.067-.025.097-.011.127.051.024.051.036.116.106.132.127.03.203.118.258.234.143.306.25.625.34.95.05.18.108.355.209.511.144.223.406.313.624.22.218-.094.336-.341.28-.605-.043-.206-.159-.376-.274-.546a5.366 5.366 0 0 1-.525-.91c-.035-.082-.055-.169-.017-.252a.207.207 0 0 0-.009-.202c-.046-.081-.018-.12.055-.166a6.368 6.368 0 0 0 1.475-1.282 6.733 6.733 0 0 0 1.285-2.316c.016-.05.031-.077.09-.057a.25.25 0 0 0 .252-.042c.056-.043.128-.047.201-.033.342.063.666.187.986.321.143.06.286.117.438.146.183.034.355.012.502-.115.286-.248.196-.706-.17-.86a1.218 1.218 0 0 0-.416-.092 7.199 7.199 0 0 1-.97-.108c-.172-.032-.335-.078-.426-.255-.019-.036-.056-.04-.09-.05-.13-.04-.13-.039-.114-.172a6.455 6.455 0 0 0-.025-1.756 6.727 6.727 0 0 0-.99-2.671c-.031-.05-.033-.08.016-.116.076-.057.136-.123.136-.234 0-.078.046-.14.103-.191.266-.241.568-.428.875-.603.143-.082.281-.17.402-.285.24-.227.254-.592.03-.795-.179-.162-.461-.162-.677.004a2.017 2.017 0 0 0-.308.29 5.552 5.552 0 0 1-.766.76.319.319 0 0 1-.235.078.27.27 0 0 0-.238.08c-.049.05-.084.045-.133-.008a6.337 6.337 0 0 0-1.281-1.05 6.323 6.323 0 0 0-2.736-.942c-.047-.005-.066-.02-.065-.07 0-.1-.016-.19-.1-.261-.056-.047-.07-.12-.074-.196-.016-.319.022-.634.067-.948.028-.201.067-.4.058-.606-.012-.284-.207-.526-.45-.55-.27-.026-.487.152-.546.454a1.13 1.13 0 0 0-.002.384c.054.352.111.703.117 1.073Z" fill="#326CE4"/><path d="M11.615 4.944c-.006-.375-.065-.732-.12-1.09a1.14 1.14 0 0 1 .003-.39c.06-.307.283-.488.56-.461.247.023.447.27.459.558.01.209-.03.411-.06.616-.046.32-.084.64-.068.964.004.076.019.151.075.198.087.072.104.165.103.266 0 .051.018.066.067.07a6.492 6.492 0 0 1 2.797.959c.48.295.92.654 1.31 1.066.05.054.086.06.136.009a.277.277 0 0 1 .243-.082.328.328 0 0 0 .24-.08c.29-.226.543-.492.784-.77.095-.11.2-.21.315-.297.22-.168.51-.168.693-.003.228.206.214.577-.031.808a2.09 2.09 0 0 1-.411.289c-.315.178-.623.367-.895.613-.058.052-.107.115-.106.194 0 .112-.061.179-.139.237-.05.037-.048.068-.016.118a6.808 6.808 0 0 1 1.012 2.715c.09.59.1 1.19.026 1.784-.017.136-.018.135.117.175.034.01.072.014.091.05.093.18.26.227.437.26.328.06.659.096.991.11.146.006.29.037.425.093.375.157.466.622.174.874-.15.128-.326.152-.513.117a2.242 2.242 0 0 1-.448-.148c-.327-.136-.658-.263-1.008-.327-.075-.014-.149-.01-.205.034a.26.26 0 0 1-.258.043c-.06-.02-.076.008-.092.057a6.83 6.83 0 0 1-1.314 2.354c-.435.511-.943.95-1.508 1.303-.075.047-.104.086-.056.168a.208.208 0 0 1 .008.206c-.039.085-.018.173.018.256.143.33.333.631.536.925.119.172.237.345.28.555.057.267-.064.52-.285.614-.22.095-.491.003-.639-.223a1.83 1.83 0 0 1-.213-.52 6.03 6.03 0 0 0-.349-.964c-.056-.12-.133-.209-.263-.238-.072-.017-.084-.083-.109-.134-.03-.064-.06-.078-.13-.052a6.397 6.397 0 0 1-4.545-.013c-.064-.024-.098-.015-.121.048-.034.093-.093.157-.194.178-.053.012-.091.054-.124.1a1.209 1.209 0 0 0-.154.296c-.11.302-.22.604-.302.915-.035.123-.085.241-.149.351-.15.267-.453.375-.694.25-.238-.121-.336-.428-.226-.71.062-.152.141-.295.237-.427a5.66 5.66 0 0 0 .554-.957c.032-.073.046-.146.016-.22a.298.298 0 0 1 .024-.284c.035-.058.015-.086-.038-.12-1.371-.869-2.326-2.08-2.85-3.645-.02-.06-.047-.077-.103-.058a.262.262 0 0 1-.244-.03c-.106-.073-.221-.052-.336-.024a6.013 6.013 0 0 0-.912.311c-.187.08-.375.155-.582.155a.522.522 0 0 1-.525-.407c-.05-.22.074-.465.298-.578.194-.097.406-.112.617-.123.326-.015.65-.059.97-.13.093-.022.179-.058.232-.141a.343.343 0 0 1 .244-.162c.047-.008.06-.029.054-.08-.207-1.644.132-3.163.993-4.561.045-.072.05-.114-.022-.16a.224.224 0 0 1-.105-.179.383.383 0 0 0-.148-.26 5.436 5.436 0 0 0-.84-.567 2.018 2.018 0 0 1-.432-.305c-.2-.195-.246-.485-.111-.697.158-.25.505-.3.766-.11.123.09.236.196.336.313.23.269.475.521.749.743.098.08.201.128.33.097.076-.018.12.04.17.08.05.038.08.036.124-.012a6.5 6.5 0 0 1 4.122-2.027c.053-.005.081-.017.08-.08a.325.325 0 0 1 .09-.246c.111-.116.084-.27.087-.403Zm3.246 12.047a.173.173 0 0 0 .03-.012c.972-.652 1.659-1.537 2.072-2.646.019-.051.006-.064-.047-.074-.48-.081-.959-.167-1.439-.25-.392-.067-.783-.138-1.177-.194-.292-.041-.53.21-.496.509a.807.807 0 0 0 .063.208 1691.098 1691.098 0 0 1 .994 2.46Zm-3.58-8.578.074-1.294c.003-.048-.009-.058-.054-.049-.123.024-.247.038-.37.064a5.226 5.226 0 0 0-2.584 1.374c-.046.044-.048.065.007.106.446.32.888.644 1.333.965.277.2.544.415.835.594.274.17.602.01.664-.31.018-.103.03-.206.033-.31.019-.38.041-.76.062-1.14ZM7.49 9.601l-.026.04c-.035.06-.07.12-.103.181a5.484 5.484 0 0 0-.626 3.08c.004.046-.003.097.08.072.814-.243 1.63-.481 2.444-.724.202-.06.349-.182.377-.413.024-.196-.074-.338-.207-.46-.31-.287-.623-.574-.937-.86L7.49 9.6Zm9.009.002-.04.033-1.329 1.218c-.217.2-.435.397-.645.604a.426.426 0 0 0-.108.446c.06.209.225.295.412.35.512.152 1.025.303 1.538.453.288.085.576.168.863.255.063.018.084.008.084-.062 0-.088.012-.176.015-.264a5.625 5.625 0 0 0-.485-2.454c-.087-.2-.19-.394-.306-.58v.001Zm-4.517 8.249a5.494 5.494 0 0 0 1.64-.256c.058-.019.076-.035.042-.097-.412-.758-.823-1.515-1.233-2.274a.59.59 0 0 0-.193-.224c-.236-.151-.506-.064-.658.216-.41.755-.816 1.512-1.226 2.267-.035.063-.033.087.04.11a5.35 5.35 0 0 0 1.587.258Zm-2.27-4.028a.641.641 0 0 0-.088.006l-2.51.435c-.058.01-.077.024-.052.091a5.4 5.4 0 0 0 2.006 2.58c.072.05.09.032.12-.042.222-.557.45-1.111.672-1.668.108-.272.24-.536.317-.82.084-.31-.133-.587-.466-.582Zm2.956-6.378a981.14 981.14 0 0 1 .135 2.37.422.422 0 0 0 .105.256c.167.194.411.216.65.044.696-.5 1.387-1.006 2.082-1.507.051-.037.042-.059.002-.094-.123-.106-.24-.22-.365-.321a5.18 5.18 0 0 0-2.574-1.122c-.045-.007-.06 0-.055.047.008.108.013.218.019.327ZM12 11.576c-.11 0-.22.002-.33-.002a.14.14 0 0 0-.129.06c-.138.183-.28.362-.423.541a.113.113 0 0 0-.023.109c.053.227.104.455.153.683a.13.13 0 0 0 .08.098c.204.098.407.197.608.3.05.026.088.021.133-.002.2-.1.4-.2.602-.296a.128.128 0 0 0 .08-.098c.049-.228.098-.457.152-.684a.12.12 0 0 0-.028-.115c-.136-.172-.274-.345-.405-.52a.164.164 0 0 0-.157-.076c-.105.005-.21 0-.313 0v.001Z" fill="#FDFDFE"/><path d="m15.004 17-.308-.754-.634-1.565a.764.764 0 0 1-.059-.197c-.033-.281.193-.519.47-.48.372.053.742.12 1.114.183.454.078.907.16 1.361.236.05.009.062.021.044.07a5.051 5.051 0 0 1-1.96 2.496.173.173 0 0 1-.028.011ZM10.927 8.272c-.021.36-.043.718-.062 1.077a1.98 1.98 0 0 1-.032.292.433.433 0 0 1-.655.294c-.287-.17-.55-.374-.823-.562-.439-.303-.874-.61-1.314-.912-.055-.038-.052-.058-.007-.1a5.223 5.223 0 0 1 2.548-1.298c.12-.025.243-.038.364-.06.044-.009.056 0 .054.045-.026.408-.05.816-.073 1.224ZM7.797 10l1.028.814.96.763c.135.108.236.234.211.408-.028.205-.179.313-.386.366-.835.216-1.67.427-2.505.643-.084.022-.077-.023-.081-.063a4.093 4.093 0 0 1 0-.883c.069-.65.287-1.28.641-1.851.034-.055.07-.108.105-.162L7.797 10ZM16.19 10a4.464 4.464 0 0 1 .807 2.702c-.002.079-.015.157-.015.236 0 .062-.021.072-.085.055-.293-.078-.588-.152-.882-.228l-1.573-.403c-.19-.05-.358-.126-.42-.312a.347.347 0 0 1 .11-.398c.215-.184.438-.36.66-.538.452-.362.905-.724 1.359-1.085l.04-.029ZM11.97 18a7.356 7.356 0 0 1-1.896-.265c-.087-.024-.09-.048-.048-.112.491-.775.976-1.551 1.465-2.326.18-.288.504-.377.786-.222.102.057.173.14.23.23l1.473 2.333c.04.063.02.08-.05.1a7.554 7.554 0 0 1-1.96.262ZM9.538 14c.318-.005.525.26.445.555-.075.272-.2.524-.303.784-.211.532-.43 1.062-.64 1.594-.029.07-.046.088-.116.04a5.16 5.16 0 0 1-1.914-2.465c-.024-.064-.005-.077.05-.087l2.395-.415A.615.615 0 0 1 9.538 14ZM13.02 7.358c-.006-.105-.01-.209-.02-.311-.003-.046.01-.05.055-.045a5.25 5.25 0 0 1 2.55 1.064c.125.097.24.204.362.305.04.033.049.053-.002.089-.688.476-1.373.955-2.062 1.43-.238.163-.48.141-.644-.043a.39.39 0 0 1-.104-.243 868.646 868.646 0 0 1-.135-2.246ZM12.002 12.001c.114 0 .229.003.343 0a.342.342 0 0 1 .098.008c.03.007.056.019.075.033.145.098.296.192.447.288a.07.07 0 0 1 .031.03.035.035 0 0 1-.001.034c-.06.125-.113.251-.168.377a.068.068 0 0 1-.03.033.173.173 0 0 1-.057.021l-.662.164a.271.271 0 0 1-.146.002 42.34 42.34 0 0 0-.67-.166.172.172 0 0 1-.058-.021.066.066 0 0 1-.03-.034 14.07 14.07 0 0 0-.169-.377.034.034 0 0 1-.002-.032.064.064 0 0 1 .028-.028c.157-.099.313-.198.466-.3a.172.172 0 0 1 .062-.026.29.29 0 0 1 .08-.006c.12.002.242 0 .363 0Z" fill="#326CE4"/></svg>