<svg width="23" height="24" fill="none" xmlns="http://www.w3.org/2000/svg"><g clip-path="url(#a)"><path d="M10.98 21.133a3.001 3.001 0 0 1-.67-.492 12.536 12.536 0 0 1-4-6.425 10.774 10.774 0 0 1-.24-3.795 14.917 14.917 0 0 1 1-4.126 12.882 12.882 0 0 1 3.43-4.96A1.694 1.694 0 0 0 11.24 0l.07.16v.091c.053.353.087.708.1 1.064 0 .623 0 1.245.07 1.868.07.622 0 1.345 0 2.007v7.711c.04.796.04 1.593 0 2.39v.682c0 .783-.12 1.546-.1 2.33-.09 0 0 .08 0 .13-.05.532-.1 1.064-.18 1.596-.02.351-.14.723-.22 1.104Z" fill="#10A950"/><path d="M11.5 18.272c0-.783.1-1.546.1-2.33v-.682c.04-.796.04-1.593 0-2.39V9.268c-.05-1.376 0-2.741 0-4.107V3.152c0-.662 0-1.245-.07-1.867a9.558 9.558 0 0 0-.1-1.064V.13c.1.19.19.381.28.572.25.534.589 1.023 1 1.445a13.05 13.05 0 0 1 2.71 3.876 15.934 15.934 0 0 1 1.19 3.694 11.6 11.6 0 0 1 .13 2.942 11.589 11.589 0 0 1-1.41 4.819 10.319 10.319 0 0 1-2.94 3.434l-.11.06a1.164 1.164 0 0 1-.48-.613 6.14 6.14 0 0 1-.3-2.088Z" fill="#12924F"/><path d="M11.5 18.272c0 .684.116 1.363.34 2.008.085.253.255.47.48.612-.08.412-.16.824-.23 1.235-.07.412-.2 1.095-.25 1.657 0 .14-.05.24-.22.21h-.16c-.11 0-.15 0-.16-.14a40.87 40.87 0 0 0-.28-2.48 2.45 2.45 0 0 1 0-.27c.08-.382.2-.754.26-1.135.08-.532.13-1.064.18-1.597-.04-.02-.09-.09.04-.1Z" fill="#B7C3C1"/></g><defs><clipPath id="a"><path fill="#fff" d="M0 0h23v24H0z"/></clipPath></defs></svg>