<svg width="24" height="24" fill="none" xmlns="http://www.w3.org/2000/svg"><path d="M19.05 6.208v-.707l.08-.14a.31.31 0 0 1 .24-.09h2.39a.5.5 0 0 0 .16-.06.278.278 0 0 0 0-.099h-1.53c-.352.005-.7-.092-1-.279a.839.839 0 0 1-.4-.757V2.442l.08-.14a.3.3 0 0 1 .22-.079h.57a.35.35 0 0 1 .25.09.318.318 0 0 1 .08.249v1.504c0 .12 0 .13.13.15h1.62V2.512a.338.338 0 0 1 .06-.229l.06-.06h.76a.281.281 0 0 1 .3.299v2.68a.994.994 0 0 1-.65.857 2.461 2.461 0 0 1-.29.09l-.18.049h-3l.05.01ZM15.92 5.182a1.546 1.546 0 0 1-.46-.08.72.72 0 0 1-.46-.428l-.83-1.833v1.992a.298.298 0 0 1-.32.339h-.65l-.13-.08-.07-.1V1.846a.646.646 0 0 1 .51-.668c.143-.05.29-.08.44-.09h.11a.943.943 0 0 1 .89.618l.94 2.162.94-2.112a.997.997 0 0 1 .94-.657c.094-.01.188-.01.28 0 .58.11.76.328.76.916v2.79a.367.367 0 0 1-.08.248l-.07.06h-.73a.31.31 0 0 1-.34-.339V2.781c-.26.578-.52 1.146-.76 1.723a.996.996 0 0 1-.91.678Z" fill="#03628B"/><g fill="#03628B"><path d="M22.157 23.118a1.95 1.95 0 0 1-.611-.438l-.084-.073a9.25 9.25 0 0 0-2.01-1.217 6.082 6.082 0 0 1-2.323-1.8 4.105 4.105 0 0 1-.491-.888.95.95 0 0 1 .243-1.141.917.917 0 0 1 .367-.185c.491-.204 1-.36 1.52-.463a6.799 6.799 0 0 0-2.393-1.143 2.378 2.378 0 0 1-1.03-.486 2.427 2.427 0 0 1-.694-.913l-.228-.475c-.55-1.216-1.125-2.36-1.616-3.65a11.244 11.244 0 0 0-1.951-3.138 12.156 12.156 0 0 0-3.268-2.701 5.307 5.307 0 0 0-2.61-.681 1.697 1.697 0 0 1-1.101-.45 4.952 4.952 0 0 0-1.389-.84l.072.085a8.723 8.723 0 0 1 1.832 3.565c.132.526.338 1.03.61 1.496.073.139.166.266.276.377a1.73 1.73 0 0 1 .479 1.934c0 .147-.108.305-.168.463-.112.284-.2.577-.264.876a6.428 6.428 0 0 0 0 2.19c.198-.553.499-1.06.886-1.497a.852.852 0 0 1 .67-.34.83.83 0 0 1 .494.172c.142.11.246.262.297.436l.107.316.12.341A19.361 19.361 0 0 0 9.91 16.5c.309.427.645.834 1.006 1.216l-.946 1.156a2.463 2.463 0 0 1-.371-.28c-.275-.292-.575-.547-.874-.815-.328-.264-.64-.549-.934-.852a5.965 5.965 0 0 1-.562-.656 1.576 1.576 0 0 1-.568.704 1.538 1.538 0 0 1-.857.269 1.743 1.743 0 0 1-1.101-.414A3.76 3.76 0 0 1 3.59 15.21a7.411 7.411 0 0 1-.228-4.769l.072-.365c.046-.234.106-.466.18-.693a6.994 6.994 0 0 1-1.197-2.227 15.302 15.302 0 0 1-.551-1.642 1.65 1.65 0 0 0-.311-.584l-.443-.596c-.168-.231-.347-.462-.515-.706A2.86 2.86 0 0 1 .01 2.193 2.1 2.1 0 0 1 .513.61C.706.405.941.244 1.202.14c.26-.105.54-.151.82-.136h.287a5.856 5.856 0 0 1 2.92 1.302c.11.106.256.167.408.17a6.64 6.64 0 0 1 3.46 1.083 15.98 15.98 0 0 1 5.35 5.426c.264.48.493.98.683 1.496.107.292.227.584.359.864.467.973.921 1.959 1.376 2.932a.328.328 0 0 0 .24.207 13.85 13.85 0 0 1 4.441 2.895c.177.175.337.367.479.572l.167.219a.88.88 0 0 1 .228.87.879.879 0 0 1-.24.398.858.858 0 0 1-.407.216 6.56 6.56 0 0 1-1.652.329c.276.17.563.352.838.56.439.363.84.77 1.198 1.216.167.194.335.389.514.56.145.161.255.352.323.559l.072.158L24 23.91l-1.843-.791Z"/><path d="m5.756 6.232-.131-.292a4.67 4.67 0 0 0-.719-1.144l-.347-.39.443-.206c.167-.07.346-.107.527-.11.238.01.467.092.66.235.191.143.337.341.417.569a1.236 1.236 0 0 1-.31 1.216l-.097.085h-.215l-.228.037Z"/></g><path d="M11.473 24a1.065 1.065 0 0 1-.422-.08.964.964 0 0 1-.342-.236c-.34-.282-.351-.282-.497-.282H9.073a5.398 5.398 0 0 1-.885-.066 2.127 2.127 0 0 1-.715-.271.993.993 0 0 1-.346-.339.87.87 0 0 1-.127-.444v-2.175a.9.9 0 0 1 .181-.528c.116-.157.28-.28.474-.353.283-.126.593-.196.909-.207H10.6c.32.012.633.082.921.207.199.082.366.214.482.38a.936.936 0 0 1 .173.555v2.088a.792.792 0 0 1-.085.425.894.894 0 0 1-.303.336l1.212.946h-1.527V24Zm-3.006-1.925c0 .228.085.305.327.315h.254l-.618-.51.037.195Zm1.515-.315a.594.594 0 0 1 .34.12l.46.38v-2.001s0-.076-.097-.12a.758.758 0 0 0-.352-.065H8.927a1.084 1.084 0 0 0-.279 0c-.145 0-.181.087-.181.217v1.436l1.515.033ZM3.247 22.994l-.142-.09-.071-.071v-.161c.01-.1.01-.201 0-.302v-.09l.08-.14a.313.313 0 0 1 .244-.091h1.856c.111.01.223.01.334 0a.265.265 0 0 0 .152-.05v-.443c0-.13 0 0-.07-.08a.796.796 0 0 0-.315 0h-.923a2.042 2.042 0 0 1-.892-.222.849.849 0 0 1-.497-.844v-.312a.94.94 0 0 1 .629-.935c.302-.11.622-.157.943-.14h2.19l.152.1a.33.33 0 0 1 .081.251c-.005.09-.005.181 0 .272v.09l-.08.161a.336.336 0 0 1-.254.09H4.362l-.294.081h.213v.281c0 .141.05.171.162.181h.882a2.84 2.84 0 0 1 .852.091c.223.061.429.175.598.332a.712.712 0 0 1 .213.512c-.01.171-.01.343 0 .513a.829.829 0 0 1-.395.734 1.877 1.877 0 0 1-.913.292H3.247v-.01Z" fill="#E38F02"/><path d="M13.594 22.984c-.33-.001-.656-.065-.96-.189a1.024 1.024 0 0 1-.46-.369.962.962 0 0 1-.17-.552v-2.546a.266.266 0 0 1 .083-.248l.062-.06h.754a.323.323 0 0 1 .251.086.296.296 0 0 1 .09.242v2.457c0 .227 0 .247.247.257.193.01.386.01.578 0h1.704l.144.09a.338.338 0 0 1 .083.237 1.42 1.42 0 0 0 0 .297v.09l-.083.138a.311.311 0 0 1-.237.09l-2.086-.02Z" fill="#E38F02"/></svg>