<svg width="24" height="24" fill="none" xmlns="http://www.w3.org/2000/svg"><g clip-path="url(#a)"><path d="M10.972 17.9c-.522.201-1.08.3-1.643.29a5.674 5.674 0 0 1-1.188-.17 2.418 2.418 0 0 1-1.188-.651H6.84a2.2 2.2 0 0 1-.64.35 2.016 2.016 0 0 1-1.601 0 3.093 3.093 0 0 1-.972-.71 6.86 6.86 0 0 1-.93-1.303 14.79 14.79 0 0 1-.867-1.933c-.383-1.002-.682-2.003-.961-3.005a33.72 33.72 0 0 1-.703-3.195A7.623 7.623 0 0 1 .052 6.57c-.035-.72.003-1.441.113-2.154a5.777 5.777 0 0 1 .527-1.692A4.153 4.153 0 0 1 2.76.72a5.974 5.974 0 0 1 2.19-.44c.723-.03 1.447.017 2.16.14C7.87.55 8.62.74 9.35.99a.276.276 0 0 0 .217 0 5.632 5.632 0 0 1 2.459-.73 9.415 9.415 0 0 1 2.066.11c.193.05.396.05.589 0h.114a11.187 11.187 0 0 1 2.149-.381 8.905 8.905 0 0 1 1.715.1 7.403 7.403 0 0 1 2.014.581 6.701 6.701 0 0 1 2.377 1.723c.198.213.365.453.495.711.123.293.206.599.248.912.037.406.037.815 0 1.222-.02.48-.072.958-.155 1.432-.14.766-.333 1.523-.578 2.264a22.914 22.914 0 0 1-2.252 4.858v.08h.062l1.033-.21c.272-.074.554-.108.837-.1.22.003.436.058.63.16.243.11.438.3.548.538.11.237.128.505.051.754a1.69 1.69 0 0 1-.475.801 4.96 4.96 0 0 1-1.736 1.072 6.374 6.374 0 0 1-1.983.37h-.693s-.082 0-.082.06v.301c0 .571 0 1.152-.114 1.723a9.217 9.217 0 0 1-.3 1.503c-.143.576-.4 1.12-.754 1.602-.364.48-.857.855-1.426 1.082a6.65 6.65 0 0 1-1.456.39 4.029 4.029 0 0 1-1.25.051 2.409 2.409 0 0 1-.827-.26 2.347 2.347 0 0 1-.899-.912 6.88 6.88 0 0 1-.547-1.402 7.645 7.645 0 0 1-.259-1.733V18.18c.006-.1.006-.2 0-.3a.125.125 0 0 0-.103-.037.127.127 0 0 0-.093.057Zm.64-1.082v1.643c0 .54 0 1.002.073 1.532.024.414.08.826.165 1.232.146.694.55 1.311 1.137 1.733.306.207.662.334 1.033.37.518.051 1.042 0 1.54-.15.335-.08.658-.206.96-.37.579-.3 1.018-.8 1.23-1.402.129-.372.222-.754.278-1.142.073-.471.135-.942.207-1.413l.155-1.202c0-.39.093-.78.134-1.172 0-.05 0-.06.073-.05a5.198 5.198 0 0 0 1.715.05c.425-.041.842-.14 1.24-.29a4.306 4.306 0 0 0 1.446-.902c.09-.077.167-.168.227-.27a.597.597 0 0 0 .083-.32.484.484 0 0 0-.146-.3.512.512 0 0 0-.309-.141 1.46 1.46 0 0 0-.589 0c-.361.07-.733.13-1.105.17-.342.052-.691.052-1.033 0a.994.994 0 0 1-.33-.11c-.073 0-.073 0 0-.12.226-.34.443-.692.66-1.002a22.974 22.974 0 0 0 2.067-4.598c.251-.769.44-1.556.568-2.354.086-.543.12-1.093.103-1.642a4.292 4.292 0 0 0-.124-.812 2.098 2.098 0 0 0-.465-.931A6.38 6.38 0 0 0 19.206.85a8.24 8.24 0 0 0-2.324-.2 9.57 9.57 0 0 0-2.346.34 1 1 0 0 1-.516 0 7.902 7.902 0 0 0-1.88-.11 5.305 5.305 0 0 0-1.767.371 3.76 3.76 0 0 0-.723.37.18.18 0 0 1-.176 0 13.39 13.39 0 0 0-2.5-.63 10.405 10.405 0 0 0-1.364-.1 6.437 6.437 0 0 0-1.85.21 4.065 4.065 0 0 0-1.663.901 3.705 3.705 0 0 0-.93 1.313 6.145 6.145 0 0 0-.413 1.592 10.062 10.062 0 0 0 0 1.673c.02.337.065.671.135 1.002.185 1.071.433 2.133.723 3.185.292 1.1.657 2.181 1.095 3.235.238.596.532 1.17.878 1.713.214.378.494.717.827 1.002.199.164.431.287.681.36a1.425 1.425 0 0 0 1.137-.18c.234-.145.44-.328.61-.54a36.745 36.745 0 0 1 1.694-1.864l.134-.15c.062-.07.062-.07.145 0 .245.12.505.208.775.26.144 0 .3 0 .444.06.145.06.093 0 0 .08l-.403.471a1.11 1.11 0 0 1-.413.26 5.626 5.626 0 0 1-.9.231c-.208.04-.412.1-.609.18-.11.046-.212.111-.3.19a.53.53 0 0 0-.062.731c.085.106.186.197.3.271.3.17.629.282.971.331.402.072.813.088 1.22.05.617-.066 1.2-.31 1.673-.701a.116.116 0 0 1 .093 0l.01.06Z" fill="#336791"/><path d="M11.52 16.758a3.148 3.148 0 0 1-1.674.701 4.528 4.528 0 0 1-1.22-.05 2.784 2.784 0 0 1-.97-.33 1.268 1.268 0 0 1-.3-.271.53.53 0 0 1 .062-.731c.088-.08.189-.145.3-.19.196-.08.4-.14.61-.18.305-.053.606-.13.898-.231a1.11 1.11 0 0 0 .413-.26l.403-.471v-.08c0-.01-.3 0-.444-.06-.27-.053-.53-.14-.775-.261h-.145l-.134.15a36.745 36.745 0 0 0-1.694 1.863c-.17.213-.376.396-.61.541a1.41 1.41 0 0 1-1.136.18 1.932 1.932 0 0 1-.682-.36 3.759 3.759 0 0 1-.827-1.002 10.373 10.373 0 0 1-.878-1.713 25.484 25.484 0 0 1-1.095-3.235 33.827 33.827 0 0 1-.723-3.185A6.877 6.877 0 0 1 .764 6.58a10.062 10.062 0 0 1 0-1.673 6.145 6.145 0 0 1 .414-1.592c.208-.498.525-.946.93-1.313a4.065 4.065 0 0 1 1.663-.901A6.44 6.44 0 0 1 5.61.922c.456.003.912.036 1.364.1.852.126 1.69.334 2.5.62a.18.18 0 0 0 .176 0c.226-.148.468-.272.723-.37a5.302 5.302 0 0 1 1.766-.39 7.903 7.903 0 0 1 1.88.11 1 1 0 0 0 .517 0A9.567 9.567 0 0 1 16.861.63a8.24 8.24 0 0 1 2.325.2 6.38 6.38 0 0 1 3.399 2.004c.22.245.379.537.464.851.068.266.11.538.125.811.017.55-.018 1.1-.104 1.643a15.336 15.336 0 0 1-.568 2.354 22.974 22.974 0 0 1-2.066 4.598c-.217.35-.434.701-.662 1.002v.12a.993.993 0 0 0 .331.11c.342.052.69.052 1.033 0 .372 0 .744-.1 1.106-.17.194-.04.394-.04.588 0a.512.512 0 0 1 .31.141c.082.08.134.186.145.3a.597.597 0 0 1-.083.32c-.06.12-.145.23-.248.32a4.305 4.305 0 0 1-1.446.902c-.398.15-.815.248-1.24.29-.57.079-1.15.062-1.715-.05 0 0-.062 0-.072.05 0 .391-.093.782-.134 1.172l-.155 1.202c-.073.471-.135.942-.207 1.413-.056.388-.15.77-.279 1.142a2.527 2.527 0 0 1-1.23 1.402c-.301.164-.624.29-.96.37a4 4 0 0 1-1.54.15 2.244 2.244 0 0 1-1.033-.37 2.867 2.867 0 0 1-1.136-1.733 8.215 8.215 0 0 1-.114-1.152c0-.51-.062-1.001-.072-1.532-.01-.531 0-1.092 0-1.643v-.11a.117.117 0 0 0-.103.02ZM7.852 6.86a4.87 4.87 0 0 1 1.705-.52c.406-.06.821-.009 1.198.15.219.092.414.23.573.403.159.173.277.377.347.598.077.267.14.538.185.812.088.483.14.972.155 1.462a5.612 5.612 0 0 1-.413 2.364c-.113.27-.237.531-.361.791-.124.261-.28.732-.403 1.092a.24.24 0 0 0 0 .08h.051c.247-.024.495.023.714.135.219.112.398.285.516.497.18.303.256.654.217 1.001V18.281c0 .55 0 1.101.072 1.652.012.367.053.732.124 1.092.102.48.355.917.723 1.252.224.19.5.312.796.35a2.98 2.98 0 0 0 1.116-.08c.26-.06.516-.14.764-.24.288-.108.545-.281.752-.504.206-.223.355-.489.436-.778.1-.328.172-.663.217-1.002.073-.48.145-1.001.207-1.452.062-.45.124-.922.175-1.382.052-.461.114-.922.155-1.383v-.3a2.848 2.848 0 0 1 0-.511c.042-.208.142-.4.29-.556.148-.155.337-.268.547-.325h.114v-.07l-.372-.461a4.242 4.242 0 0 1-.496-.832 7.274 7.274 0 0 0-.403-.731 18.097 18.097 0 0 1-1.033-2.003 5.873 5.873 0 0 1-.382-1.252 2.73 2.73 0 0 1 0-1.192c.057-.263.182-.507.362-.71.181-.203.412-.359.67-.452.26-.09.532-.141.807-.15.282-.026.565-.026.847 0h.124a.971.971 0 0 0 .01-.261 7.785 7.785 0 0 0-1.27-2.003 7.26 7.26 0 0 0-1.705-1.443 6.468 6.468 0 0 0-2.418-.871 7.91 7.91 0 0 0-1.291-.13 4.36 4.36 0 0 0-2.376.73c-.488.35-.896.793-1.199 1.303a6.879 6.879 0 0 0-.816 2.134 8.76 8.76 0 0 0-.176 1.161s.104.01.145-.02Zm.94-4.737a13.275 13.275 0 0 0-1.767-.411 8.521 8.521 0 0 0-1.828-.09 4.962 4.962 0 0 0-1.664.37 3.27 3.27 0 0 0-1.746 1.793c-.17.422-.285.863-.34 1.312-.042.524-.042 1.05 0 1.573 0 .3.072.591.123.892a36.6 36.6 0 0 0 .682 3.005c.292 1.1.658 2.18 1.095 3.235.238.616.546 1.204.92 1.753.161.245.356.467.578.661l.207.14a.729.729 0 0 0 .806 0c.165-.111.314-.242.444-.39l.775-.882c.32-.37.661-.721 1.033-1.072v-.12l-.062-.06a3.385 3.385 0 0 1-1.095-2.003 4.051 4.051 0 0 1 0-1.172c.031-.176.052-.353.062-.531.031-.534.031-1.069 0-1.603V7.442a9.361 9.361 0 0 1 .703-3.445 5.686 5.686 0 0 1 1.167-1.733.22.22 0 0 0-.093-.14Zm10.807 11.068a21.656 21.656 0 0 0 2.066-4.317 18.19 18.19 0 0 0 .64-2.304c.089-.434.15-.872.187-1.312a5.475 5.475 0 0 0 0-.922 3.031 3.031 0 0 0-.104-.53 1.546 1.546 0 0 0-.32-.512 5.655 5.655 0 0 0-2.635-1.702 7.064 7.064 0 0 0-1.58-.28c-.43-.03-.862-.03-1.292 0-.33 0-.65.07-1.033.13h-.062l.362.17a7.764 7.764 0 0 1 2.438 2.003c.515.607.94 1.282 1.26 2.003.117.257.204.526.259.802.01.193.01.387 0 .58 0 .451-.114.892-.176 1.343a5.301 5.301 0 0 0 0 1.402c.052.431.114.862.145 1.292a3.76 3.76 0 0 1-.507 2.284v.11c0 .03 0 .06.083.08.098-.1.188-.207.269-.32Zm-8.462-4.928c0-.14-.051-.28-.093-.41a.985.985 0 0 0-.19-.452c-.101-.133-.235-.24-.388-.31a1.23 1.23 0 0 0-.424-.09 3.114 3.114 0 0 0-1.25.19c-.351.12-.682.27-1.033.42a.154.154 0 0 0-.081.063.147.147 0 0 0-.022.098v1.112c.025.427.025.855 0 1.282 0 .28-.062.56-.093.841a2.54 2.54 0 0 0 .144 1.212 2.67 2.67 0 0 0 1.343 1.523c.302.148.633.233.971.25.063 0 .093 0 .104-.07.179-.579.4-1.144.661-1.693a5.42 5.42 0 0 0 .455-1.382c.024-.28.024-.561 0-.841a8.598 8.598 0 0 0-.104-1.743ZM19 12.27c.08-.365.107-.739.082-1.111 0-.461-.093-.912-.145-1.373a6.108 6.108 0 0 1 0-1.302c.052-.39.124-.781.166-1.172a2.218 2.218 0 0 0 0-.26c0-.1 0-.1-.104-.11a5.2 5.2 0 0 0-.785 0c-.231.01-.46.05-.681.12a1.033 1.033 0 0 0-.55.376.98.98 0 0 0-.194.625c-.007.43.067.858.217 1.263.206.625.476 1.229.805 1.803l.662 1.191c.082.14.155.291.227.441a.281.281 0 0 0 .083.12c.109-.2.182-.417.216-.64v.03ZM8.42 16.708a3.7 3.7 0 0 0 1.033.13 2.647 2.647 0 0 0 1.54-.51c.189-.147.358-.316.506-.502a.495.495 0 0 0 .103-.44.681.681 0 0 0-.15-.323.712.712 0 0 0-.294-.208.308.308 0 0 0-.362.08c-.206.21-.392.43-.578.661-.242.299-.58.51-.961.601-.29.08-.579.14-.868.21l-.279.07a.187.187 0 0 0-.103.06c.128.07.268.118.413.14v.03Zm13.152-1.693c-.523.09-1.058.09-1.58 0a1.71 1.71 0 0 1-.59-.25.17.17 0 0 0-.155 0h-.154a.654.654 0 0 0-.33.197.622.622 0 0 0-.156.344c-.01.106-.01.213 0 .32 0 .1 0 .1.103.13.144.047.293.074.444.08.698.054 1.4-.024 2.067-.23.402-.13.777-.33 1.105-.591a.097.097 0 0 0 0-.07c-.227 0-.485.07-.754.07Z" fill="#FDFEFE"/><path d="M7.718 6.932s.093 0 .134-.07a4.87 4.87 0 0 1 1.705-.521c.406-.06.821-.009 1.198.15.219.092.414.23.573.403.159.173.277.377.347.598.077.267.14.538.185.812.088.483.14.972.155 1.462a5.612 5.612 0 0 1-.413 2.364c-.113.27-.237.531-.361.791-.124.261-.28.732-.403 1.092a.245.245 0 0 0 0 .08h.051c.247-.024.495.023.714.135.219.112.398.285.516.497.18.303.256.654.217 1.001V18.281c0 .55 0 1.101.072 1.652.012.367.053.732.124 1.092.102.48.355.917.723 1.252.224.19.5.312.796.35a2.98 2.98 0 0 0 1.116-.08c.26-.06.516-.14.764-.24.288-.108.545-.281.752-.504.206-.223.355-.489.436-.778.1-.328.172-.663.217-1.002.073-.48.145-1.001.207-1.452.062-.45.124-.922.175-1.382.052-.461.114-.922.155-1.383v-.3a2.867 2.867 0 0 1 0-.511c.042-.208.142-.4.29-.556.148-.155.337-.268.547-.325h.114v-.07l-.372-.461a4.247 4.247 0 0 1-.496-.832 7.273 7.273 0 0 0-.403-.731 18.098 18.098 0 0 1-1.033-2.003 5.88 5.88 0 0 1-.382-1.252 2.733 2.733 0 0 1 0-1.192c.057-.263.182-.507.362-.71.181-.203.412-.359.67-.452.26-.09.532-.141.807-.15.282-.026.565-.026.847 0h.124a.971.971 0 0 0 .01-.261 7.784 7.784 0 0 0-1.27-2.003 7.265 7.265 0 0 0-1.705-1.443 6.468 6.468 0 0 0-2.418-.871 7.909 7.909 0 0 0-1.291-.13 4.36 4.36 0 0 0-2.376.73c-.488.35-.896.793-1.199 1.303a6.879 6.879 0 0 0-.816 2.134 8.758 8.758 0 0 0-.176 1.161l.01.05Z" fill="#336791"/><path d="M8.926 2.184a.23.23 0 0 0-.134-.06 13.275 13.275 0 0 0-1.767-.411 8.521 8.521 0 0 0-1.828-.09 4.962 4.962 0 0 0-1.664.37 3.27 3.27 0 0 0-1.746 1.793c-.17.422-.284.863-.34 1.312-.042.524-.042 1.05 0 1.573 0 .3.072.591.123.892.186 1.015.414 2.016.682 3.005.292 1.1.658 2.18 1.095 3.235.238.616.546 1.204.92 1.753.161.245.356.467.578.661l.207.14a.729.729 0 0 0 .806 0c.165-.111.314-.242.444-.39l.775-.882c.32-.37.661-.721 1.033-1.072v-.12l-.062-.06a3.385 3.385 0 0 1-1.095-2.003 4.05 4.05 0 0 1 0-1.172c.032-.176.052-.353.062-.531.031-.534.031-1.069 0-1.603V7.442a9.361 9.361 0 0 1 .703-3.445 5.686 5.686 0 0 1 1.167-1.733l.041-.08ZM19.361 13.553a2.74 2.74 0 0 0 .238-.361 21.656 21.656 0 0 0 2.066-4.317 18.19 18.19 0 0 0 .64-2.304c.089-.434.15-.872.187-1.312a5.474 5.474 0 0 0 0-.922 3.022 3.022 0 0 0-.104-.53 1.544 1.544 0 0 0-.32-.512 5.655 5.655 0 0 0-2.635-1.702 7.065 7.065 0 0 0-1.58-.28c-.43-.03-.862-.03-1.292 0-.33 0-.65.07-1.033.13h-.062l.362.17a7.764 7.764 0 0 1 2.438 2.003c.515.607.94 1.282 1.26 2.003.117.257.204.526.259.802.01.193.01.387 0 .58 0 .451-.114.892-.176 1.343a5.301 5.301 0 0 0 0 1.402c.052.431.114.862.145 1.292a3.76 3.76 0 0 1-.507 2.284v.11c0 .03.073.1.114.12Z" fill="#336791"/><path d="M11.24 10.848a5.416 5.416 0 0 1-.444 1.382c-.236.55-.433 1.116-.588 1.693 0 .06 0 .08-.104.07a2.488 2.488 0 0 1-.971-.25A2.67 2.67 0 0 1 7.79 12.22a2.543 2.543 0 0 1-.196-1.212c0-.28.072-.56.093-.841.025-.427.025-.855 0-1.282V7.773a.147.147 0 0 1 .022-.098.154.154 0 0 1 .08-.062c.342-.15.672-.3 1.034-.421a3.113 3.113 0 0 1 1.22-.19c.145.004.288.035.423.09.153.07.287.177.388.31.1.133.166.288.19.451 0 .13.062.27.093.41.118.575.177 1.159.176 1.744 0 .282-.024.563-.072.841Zm-.588-2.925a.241.241 0 0 0 .09-.185.234.234 0 0 0-.09-.185.532.532 0 0 0-.166-.09 1.317 1.317 0 0 0-.65-.09.436.436 0 0 0-.197 0 .239.239 0 0 0-.142.13.224.224 0 0 0 .008.19.78.78 0 0 0 .289.311.814.814 0 0 0 .413.12.702.702 0 0 0 .465-.2h-.02ZM18.72 12.661c-.072-.15-.144-.3-.227-.44l-.66-1.213a9.758 9.758 0 0 1-.807-1.803 3.5 3.5 0 0 1-.217-1.202.98.98 0 0 1 .194-.625c.135-.181.329-.314.55-.376.22-.07.45-.11.682-.12a5.2 5.2 0 0 1 .785 0c.104 0 .114 0 .104.11.005.086.005.173 0 .26 0 .39-.114.781-.166 1.172-.046.433-.046.87 0 1.302 0 .461.124.912.145 1.372.025.373-.003.747-.083 1.112a1.96 1.96 0 0 1-.196.541.286.286 0 0 1-.103-.09Zm-1.188-5.359c-.247.11-.268.29-.061.45a.646.646 0 0 0 .579.151.648.648 0 0 0 .276-.135c.079-.067.14-.15.178-.245a.176.176 0 0 0-.04-.245.189.189 0 0 0-.084-.036.799.799 0 0 0-.32 0 1.063 1.063 0 0 0-.527.06ZM8.028 16.508c.12.078.252.136.392.17a3.7 3.7 0 0 0 1.033.13 2.647 2.647 0 0 0 1.54-.51c.189-.147.359-.316.506-.502a.495.495 0 0 0 .103-.44.68.68 0 0 0-.15-.323.713.713 0 0 0-.294-.208.309.309 0 0 0-.362.08c-.206.21-.392.43-.578.66-.242.3-.58.511-.961.602-.29.08-.579.14-.868.21l-.279.07a.186.186 0 0 0-.082.06ZM22.378 14.895c-.279 0-.537.1-.806.13a4.65 4.65 0 0 1-1.58 0 1.71 1.71 0 0 1-.59-.25.17.17 0 0 0-.155 0h-.154a.654.654 0 0 0-.33.197.622.622 0 0 0-.156.344c-.01.106-.01.213 0 .32 0 .1 0 .1.103.13.144.047.293.074.444.08.698.054 1.4-.024 2.067-.23a3.523 3.523 0 0 0 1.105-.601.102.102 0 0 0 .049-.05.097.097 0 0 0 .003-.07Z" fill="#336791"/><path d="M10.207 8.174a.708.708 0 0 0 .486-.25.24.24 0 0 0 .09-.186.234.234 0 0 0-.09-.185.531.531 0 0 0-.165-.09 1.317 1.317 0 0 0-.651-.09.437.437 0 0 0-.196 0 .239.239 0 0 0-.142.13.224.224 0 0 0 .007.19.775.775 0 0 0 .261.33.81.81 0 0 0 .4.15ZM18.018 7.202a1.06 1.06 0 0 0-.486.1c-.247.11-.268.29-.061.45a.647.647 0 0 0 .58.151.649.649 0 0 0 .275-.135.622.622 0 0 0 .178-.245.178.178 0 0 0 .017-.174.18.18 0 0 0-.056-.071.189.189 0 0 0-.085-.036.798.798 0 0 0-.362-.04Z" fill="#FDFEFE"/></g><defs><clipPath id="a"><path fill="#fff" d="M0 0h24v24H0z"/></clipPath></defs></svg>