<svg width="39" height="39" fill="none" xmlns="http://www.w3.org/2000/svg"><g fill="#ab4a13"><path d="m19.5 9.75-7.875 2.438v1.747c0 2.599 1.118 5.09 3.105 6.92l4.77 4.396z"/><path d="M1.125 4.875 19.5 0l18.375 4.875v8.985c0 5.172-2.212 10.132-6.15 13.79L19.5 39 7.276 27.65c-3.938-3.658-6.15-8.617-6.15-13.79zm5.25 8.985V8.552L19.5 5.07l13.125 3.482v5.308c0 3.88-1.66 7.6-4.613 10.342L19.5 32.106l-8.512-7.904C8.034 21.46 6.375 17.74 6.375 13.86z" clip-rule="evenodd" fill-rule="evenodd"/></g></svg>
