<svg height="150" width="250" xml:space="preserve" y="0" x="0" id="Art" version="1.1" viewBox="-1348.021 -351.968 2433.927 395.964" xmlns="http://www.w3.org/2000/svg"><style id="style696" type="text/css">.st4{fill:#5f6368}</style><g transform="translate(-964.01 -824.445)" id="g730"><g id="g710"><path id="path702" d="M1057.1 369.2h50.8l144.8-144.8 7.1-61.5C990.3-75 579-49.3 341.1 220.2 275 295 227.1 384.1 200.9 480.5c16.1-6.6 34-7.7 50.8-3l289.6-47.8s14.7-24.4 22.4-22.9c128.8-141.5 345.6-158 494.4-37.6z" fill="#ea4335"/><path id="path704" d="M1459 480.5c-33.3-122.6-101.6-232.8-196.6-317l-203.2 203.2c85.8 70.1 134.7 175.8 132.6 286.6v36.1c99.9 0 180.9 81 180.9 180.9s-81 180.9-180.9 180.9H830l-36.1 36.6v217l36.1 36.1h361.8c259.8 2 472.1-207 474.1-466.8 1.2-157.8-76.5-305.4-206.9-393.6z" fill="#4285f4"/><path id="path706" d="M467.7 1338.6h361.8V1049H467.7c-25.8 0-51.2-5.6-74.7-16.3l-50.8 15.8-145.8 144.8-12.7 50.8c81.7 61.8 181.5 95 284 94.5z" fill="#34a853"/><path id="path708" d="M467.7 399.2C207.8 400.7-1.5 612.6 0 872.5c.9 145.1 68.6 281.7 183.7 370.1l209.8-209.8c-91-41.1-131.5-148.3-90.4-239.3 41.1-91 148.3-131.5 239.3-90.4 40.1 18.1 72.2 50.3 90.4 90.4l209.8-209.8c-89.2-116.8-228-185.1-374.9-184.5Z" fill="#fbbc05"/></g></g></svg>